<svg xmlns="http://www.w3.org/2000/svg" xmlns:xlink="http://www.w3.org/1999/xlink" width="31.255" height="37.507" viewBox="0 0 31.255 37.507">
  <defs>
    <linearGradient id="linear-gradient" x1="1" y1="0.31" x2="-0.196" y2="1.472" gradientUnits="objectBoundingBox">
      <stop offset="0" stop-color="#0094cb"/>
      <stop offset="1" stop-color="#96dccb"/>
    </linearGradient>
  </defs>
  <path id="file-download" d="M20.753,10.955V.733a10.9,10.9,0,0,1,3.852,2.485L30.05,8.665a10.867,10.867,0,0,1,2.486,3.851H22.316a1.564,1.564,0,0,1-1.563-1.563Zm12.464,4.688h-10.9a4.694,4.694,0,0,1-4.688-4.688V.052c-.252-.017-.5-.038-.758-.038H9.814A7.825,7.825,0,0,0,2,7.829V29.708a7.823,7.823,0,0,0,7.814,7.814H25.441a7.823,7.823,0,0,0,7.814-7.814V16.4C33.255,16.146,33.235,15.895,33.217,15.643Zm-9.8,13.293L20.9,31.458a4.633,4.633,0,0,1-6.545,0l-2.521-2.522a1.563,1.563,0,0,1,2.21-2.21l2.021,2.021V21.874a1.563,1.563,0,0,1,3.125,0v6.873l2.021-2.021a1.563,1.563,0,1,1,2.21,2.21Z" transform="translate(-2 -0.014)" fill="url(#linear-gradient)"/>
</svg>
