<svg xmlns="http://www.w3.org/2000/svg" xmlns:xlink="http://www.w3.org/1999/xlink" width="46" height="46" viewBox="0 0 46 46">
  <defs>
    <linearGradient id="linear-gradient" x1="1" y1="0.31" x2="-0.196" y2="1.472" gradientUnits="objectBoundingBox">
      <stop offset="0" stop-color="#0094cb"/>
      <stop offset="1" stop-color="#96dccb"/>
    </linearGradient>
  </defs>
  <g id="Icon_feather-arrow-right-circle" data-name="Icon feather-arrow-right-circle" transform="translate(1.5 1.5)">
    <g id="Сгруппировать_3105" data-name="Сгруппировать 3105">
      <path id="Контур_628" data-name="Контур 628" d="M24.5,1.5a23.006,23.006,0,0,1,8.953,44.192A23.006,23.006,0,0,1,15.547,3.308,22.857,22.857,0,0,1,24.5,1.5Zm0,43a20,20,0,1,0-20-20A20.023,20.023,0,0,0,24.5,44.5Z" transform="translate(-3 -3)" fill="url(#linear-gradient)"/>
      <path id="Контур_629" data-name="Контур 629" d="M18,30.7a1.5,1.5,0,0,1-1.061-2.561L24.479,20.6l-7.539-7.539a1.5,1.5,0,1,1,2.121-2.121l8.6,8.6a1.5,1.5,0,0,1,0,2.121l-8.6,8.6A1.5,1.5,0,0,1,18,30.7Z" transform="translate(3.5 0.9)" fill="url(#linear-gradient)"/>
      <path id="Контур_630" data-name="Контур 630" d="M29.2,19.5H12a1.5,1.5,0,0,1,0-3H29.2a1.5,1.5,0,0,1,0,3Z" transform="translate(0.9 3.5)" fill="url(#linear-gradient)"/>
    </g>
  </g>
</svg>
