<svg width="665" height="750" viewBox="0 0 665 750" fill="none" xmlns="http://www.w3.org/2000/svg">
<path fill-rule="evenodd" clip-rule="evenodd" d="M243.314 381.52C312.848 348.505 373.046 348.393 444.063 381.253C547.177 428.952 562.863 502.576 580.019 602.367C551.001 573.658 520.939 502.098 465.594 497.395C486.703 654.802 416.987 721.439 320.92 747.294C411.507 739.058 488.898 703.516 552.976 640.679C626.716 568.183 663.591 479.655 663.591 374.917C663.591 270.179 626.721 181.651 552.976 109.328C479.23 37.0098 387.847 0.850708 279.014 0.850708H0.780762V749.156H126.619C508.754 688.589 343.466 392.334 194.642 416.865C202.985 404.445 230.44 387.626 243.319 381.515L243.314 381.52ZM242.27 360.424C247.774 304.461 269.655 285.673 322.31 269.355C394.586 246.963 466.286 207.028 509.535 143.273C528.534 191.73 512.591 247.825 462.458 268.719C527.659 293.45 609.678 310.933 627.53 396.2C608.021 384.168 591.881 372.427 568.413 360.499C489.474 320.376 421.035 319.043 340.013 347.63C345.296 327.326 352.994 308.884 347.509 288.766C317.654 303.755 291.846 345.417 242.27 360.429L242.27 360.424ZM469.707 360.003C520.41 386.129 550.963 418.952 571.249 458.377C582.962 481.139 590.843 505.397 597.085 531.467C601.007 523.863 604.61 516.123 607.89 508.247C617.811 484.419 624.812 459.215 628.892 432.639L611.615 421.979C603.356 416.883 598.924 414.024 594.568 411.221C582.316 403.317 570.159 395.484 554.637 387.589L554.665 387.542C524.945 372.451 497.125 363.461 469.712 360.003H469.707ZM543.733 606.691C538.993 600.552 534.276 593.949 529.381 587.098C520.279 574.356 510.377 560.49 499.689 549.353C499.862 594.932 491.556 632.504 476.726 663.445C496.062 650.829 514.388 636.037 531.698 619.059C535.834 614.988 539.849 610.87 543.733 606.691ZM630.348 328.088C621.466 256.065 591.549 193.368 540.598 139.984C550.322 169.708 549.929 201.375 539.531 229.078C535.591 239.57 530.266 249.476 523.569 258.494C564.052 273.604 603.88 292.28 630.348 328.084V328.088ZM500.068 103.277C474.695 83.5528 447.329 67.8762 417.993 56.2614C375.928 39.6069 329.586 31.2773 279.01 31.2773H31.1933V718.748H124.771C247.858 698.692 306.362 654.409 324.542 606.902C331.079 589.798 332.394 572.156 329.689 555.188C326.872 537.555 319.741 520.409 309.6 505.051C284.05 466.37 240.487 440.066 199.513 446.818L130.339 458.223L169.451 400.004C175.259 391.356 184.871 382.741 195.184 375.254C200.393 371.473 205.999 367.799 211.399 364.509L212.092 357.457C215.531 322.454 224.82 298.284 242.392 279.351C259.304 261.119 282.037 250.089 313.4 240.365C349.353 229.228 385.049 213.504 416.449 192.357C443.118 174.402 466.656 152.539 484.462 126.282L500.068 103.272V103.277Z" fill="#A9A9A9" stroke="black"/>
</svg>
