<svg width="562" height="782" viewBox="0 0 562 782" fill="none" xmlns="http://www.w3.org/2000/svg">
<path d="M267.489 358.946H561.219V636.468C558.548 640.029 554.094 645.196 547.86 651.962C541.806 658.734 528.445 670.311 507.78 686.877C487.121 703.442 465.203 718.047 442.051 730.696C418.891 743.34 388.609 754.918 351.206 765.428C313.802 775.938 275.327 781.104 235.602 781.104C146.741 781.104 68.7732 757.903 1.53638 711.683C11.6272 703.414 21.45 694.598 30.9968 685.225C58.4739 658.242 81.3008 629.163 99.5144 598.105C138.566 623.651 183.931 636.468 235.602 636.468C269.088 636.468 299.371 631.48 326.98 621.681C354.411 611.704 373.645 601.732 384.866 591.577L401.077 578.039V476.329H267.483V358.946H267.489ZM1.427 70.2637C68.6907 24.0389 146.693 0.912476 235.605 0.912476C274.972 0.912476 312.375 6.07872 347.823 16.2287C383.265 26.5612 412.478 39.0276 435.284 53.6325C458.083 68.2375 478.214 82.8471 495.841 97.452C513.301 112.057 525.945 124.35 533.605 134.5L545.544 150.177L443.833 251.887C441.694 249.037 438.846 245.121 435.282 240.132C431.541 235.144 423.345 226.589 410.701 214.301C398.055 202.19 384.158 191.507 369.193 182.241C354.228 172.976 334.636 164.426 310.229 156.592C285.832 148.754 261.068 145.015 235.602 145.015C183.829 145.015 138.391 157.781 99.29 183.448C81.1042 152.549 58.3469 123.611 30.978 96.7688C21.3813 87.3582 11.5203 78.5278 1.42188 70.2637H1.427Z" fill="#A9A9A9" stroke="black"/>
</svg>
