<svg xmlns="http://www.w3.org/2000/svg" xmlns:xlink="http://www.w3.org/1999/xlink" viewBox="0 0 500 500" width="500" height="500" preserveAspectRatio="xMidYMid meet" style="width: 100%; height: 100%; transform: translate3d(0px, 0px, 0px); content-visibility: visible;"><defs><clipPath id="__lottie_element_48"><rect width="500" height="500" x="0" y="0"></rect></clipPath></defs><g clip-path="url(#__lottie_element_48)"><g transform="matrix(0.9998304843902588,0.01841064728796482,-0.01841064728796482,0.9998304843902588,50.47004699707031,71.76837158203125)" opacity="1" style="display: block;"><g opacity="1" transform="matrix(1,0,0,1,211.5,182.322998046875)"><path stroke-linecap="round" stroke-linejoin="round" fill-opacity="0" stroke="rgb(0,0,0)" stroke-opacity="1" stroke-width="16" d=" M143.03500366210938,-142.32400512695312 C143.03500366210938,-142.32400512695312 -143.03599548339844,-142.32400512695312 -143.03599548339844,-142.32400512695312 C-158.75599670410156,-142.32400512695312 -171.5,-129.57899475097656 -171.5,-113.85800170898438 C-171.5,-113.85800170898438 -171.5,79.70099639892578 -171.5,79.70099639892578 C-171.5,95.4219970703125 -158.75599670410156,108.16699981689453 -143.03599548339844,108.16699981689453 C-143.03599548339844,108.16699981689453 -22.77199935913086,108.16699981689453 -22.77199935913086,108.16699981689453 C-22.77199935913086,108.16699981689453 0,142.322998046875 0,142.322998046875 C0,142.322998046875 22.77199935913086,108.16699981689453 22.77199935913086,108.16699981689453 C22.77199935913086,108.16699981689453 143.03500366210938,108.16699981689453 143.03500366210938,108.16699981689453 C158.75599670410156,108.16699981689453 171.5,95.4219970703125 171.5,79.70099639892578 C171.5,79.70099639892578 171.5,-113.85800170898438 171.5,-113.85800170898438 C171.5,-129.57899475097656 158.75599670410156,-142.32400512695312 143.03500366210938,-142.32400512695312z"></path></g><g opacity="1" transform="matrix(1,0,0,1,0,0)"><path stroke-linecap="round" stroke-linejoin="round" fill-opacity="0" stroke="rgb(51,204,204)" stroke-opacity="1" stroke-width="16" d=" M120.41300201416016,96.92900085449219 C120.41300201416016,96.92900085449219 336.7449951171875,96.92900085449219 336.7449951171875,96.92900085449219"></path></g><g opacity="1" transform="matrix(1,0,0,1,0,0)"><path stroke-linecap="round" stroke-linejoin="round" fill-opacity="0" stroke="rgb(51,204,204)" stroke-opacity="1" stroke-width="16" d=" M86.25499725341797,142.47300720214844 C86.25499725341797,142.47300720214844 336.7449951171875,142.47300720214844 336.7449951171875,142.47300720214844"></path></g><g opacity="1" transform="matrix(1,0,0,1,0,0)"><path stroke-linecap="round" stroke-linejoin="round" fill-opacity="0" stroke="rgb(51,204,204)" stroke-opacity="1" stroke-width="16" d=" M86.25499725341797,188.01699829101562 C86.25499725341797,188.01699829101562 336.7449951171875,188.01699829101562 336.7449951171875,188.01699829101562"></path></g><g opacity="1" transform="matrix(1,0,0,1,0,0)"><path stroke-linecap="round" stroke-linejoin="round" fill-opacity="0" stroke="rgb(51,204,204)" stroke-opacity="1" stroke-width="16" d=" M86.25499725341797,233.55999755859375 C86.25499725341797,233.55999755859375 299.0083923339844,233.49249267578125 299.0083923339844,233.49249267578125"></path></g></g><g transform="matrix(0.9998304843902588,0.01841064728796482,-0.01841064728796482,0.9998304843902588,45.56294631958008,66.67716217041016)" opacity="1" style="display: block;"><g opacity="1" transform="matrix(1,0,0,1,216.5,187.322998046875)"><path stroke-linecap="round" stroke-linejoin="round" fill-opacity="0" stroke="rgb(51,204,204)" stroke-opacity="1" stroke-width="18" d="M0 0"></path></g></g></g></svg>