<svg xmlns="http://www.w3.org/2000/svg" xmlns:xlink="http://www.w3.org/1999/xlink" viewBox="0 0 500 500" width="500" height="500" preserveAspectRatio="xMidYMid meet" style="width: 100%; height: 100%; transform: translate3d(0px, 0px, 0px); content-visibility: visible;"><defs><clipPath id="__lottie_element_25"><rect width="500" height="500" x="0" y="0"></rect></clipPath><g id="__lottie_element_30"><g style="display: block;" transform="matrix(1,0,0,1,57.38600158691406,57.38600158691406)" opacity="1"><path fill="rgb(255,0,0)" fill-opacity="1" d=" M373.91,373.91 C373.91,373.91 11.31,373.91 11.31,373.91 C11.31,373.91 11.31,80.31 11.31,80.31 C11.31,80.31 373.91,80.31 373.91,80.31 C373.91,80.31 373.91,373.91 373.91,373.91z"></path><g opacity="1" transform="matrix(1,0,0,1,192.61399841308594,227.11099243164062)"><path stroke-linecap="round" stroke-linejoin="round" fill-opacity="0" stroke="rgb(0,0,0)" stroke-opacity="1" stroke-width="0" d=" M181.3000030517578,146.802001953125 C181.3000030517578,146.802001953125 -181.3000030517578,146.802001953125 -181.3000030517578,146.802001953125 C-181.3000030517578,146.802001953125 -181.3000030517578,-146.802001953125 -181.3000030517578,-146.802001953125 C-181.3000030517578,-146.802001953125 181.3000030517578,-146.802001953125 181.3000030517578,-146.802001953125 C181.3000030517578,-146.802001953125 181.3000030517578,146.802001953125 181.3000030517578,146.802001953125z"></path></g></g></g><mask id="__lottie_element_30_1" mask-type="alpha"><use xlink:href="#__lottie_element_30"></use></mask></defs><g clip-path="url(#__lottie_element_25)"><g mask="url(#__lottie_element_30_1)" style="display: block;"><g transform="matrix(1,0,0,1,57.38600158691406,35.91949462890625)" opacity="1"><g opacity="1" transform="matrix(1,0,0,1,106.28399658203125,172.67799377441406)"><path stroke-linecap="round" stroke-linejoin="round" fill-opacity="0" stroke="rgb(51,204,204)" stroke-opacity="1" stroke-width="16" d=" M39.38600158691406,-27.215999603271484 C39.38600158691406,-27.215999603271484 -39.38600158691406,-27.215999603271484 -39.38600158691406,-27.215999603271484 C-39.38600158691406,-27.215999603271484 -39.38600158691406,27.216999053955078 -39.38600158691406,27.216999053955078 C-39.38600158691406,27.216999053955078 39.38600158691406,27.216999053955078 39.38600158691406,27.216999053955078 C39.38600158691406,27.216999053955078 39.38600158691406,-27.215999603271484 39.38600158691406,-27.215999603271484z"></path></g><g opacity="1" transform="matrix(1,0,0,1,0,0)"><path stroke-linecap="round" stroke-linejoin="round" fill-opacity="0" stroke="rgb(0,0,0)" stroke-opacity="1" stroke-width="16" d=" M66.89700317382812,254.3280029296875 C66.89700317382812,254.3280029296875 145.66900634765625,254.3280029296875 145.66900634765625,254.3280029296875"></path></g><g opacity="1" transform="matrix(1,0,0,1,0,0)"><path stroke-linecap="round" stroke-linejoin="round" fill-opacity="0" stroke="rgb(0,0,0)" stroke-opacity="1" stroke-width="16" d=" M66.89700317382812,308.760986328125 C66.89700317382812,308.760986328125 318.3299865722656,308.760986328125 318.3299865722656,308.760986328125"></path></g><g opacity="1" transform="matrix(1,0,0,1,255.4720001220703,202.11700439453125)"><path stroke-linecap="round" stroke-linejoin="round" fill-opacity="0" stroke="rgb(51,204,204)" stroke-opacity="1" stroke-width="16" d=" M62.85900115966797,56.654998779296875 C62.85900115966797,56.654998779296875 -62.85900115966797,56.654998779296875 -62.85900115966797,56.654998779296875 C-62.85900115966797,56.654998779296875 -62.85900115966797,-56.654998779296875 -62.85900115966797,-56.654998779296875 C-62.85900115966797,-56.654998779296875 62.85900115966797,-56.654998779296875 62.85900115966797,-56.654998779296875 C62.85900115966797,-56.654998779296875 62.85900115966797,56.654998779296875 62.85900115966797,56.654998779296875z"></path></g><g opacity="1" transform="matrix(1,0,0,1,0,0)"><path stroke-linecap="round" stroke-linejoin="round" fill-opacity="0" stroke="rgb(0,0,0)" stroke-opacity="1" stroke-width="16" d=" M66.74800109863281,375.3280029296875 C66.74800109863281,375.3280029296875 129.77459716796875,375.4672546386719 129.77459716796875,375.4672546386719"></path></g><g opacity="1" transform="matrix(1,0,0,1,0,0)"><path stroke-linecap="round" stroke-linejoin="round" fill-opacity="0" stroke="rgb(0,0,0)" stroke-opacity="1" stroke-width="16" d=" M66.31500244140625,411.760986328125 C66.31500244140625,411.760986328125 124.77872467041016,412.08636474609375 124.77872467041016,412.08636474609375"></path></g><g opacity="1" transform="matrix(1,0,0,1,234.28399658203125,381.6780090332031)"><path stroke-linecap="round" stroke-linejoin="round" fill-opacity="0" stroke="rgb(51,204,204)" stroke-opacity="1" stroke-width="16" d=" M38.84867477416992,8.772412300109863 C38.84867477416992,8.772412300109863 4.285324573516846,8.884581565856934 4.285324573516846,8.884581565856934 C4.285324573516846,8.884581565856934 4.285324573516846,20.83058738708496 4.285324573516846,20.83058738708496 C4.285324573516846,20.83058738708496 38.84867477416992,20.71841812133789 38.84867477416992,20.71841812133789 C38.84867477416992,20.71841812133789 38.84867477416992,8.772412300109863 38.84867477416992,8.772412300109863z"></path></g><g opacity="1" transform="matrix(1,0,0,1,106.28399658203125,511.6780090332031)"><path stroke-linecap="round" stroke-linejoin="round" fill-opacity="0" stroke="rgb(51,204,204)" stroke-opacity="1" stroke-width="16" d=" M10.329999923706055,-7.138000011444092 C10.329999923706055,-7.138000011444092 -10.329999923706055,-7.138000011444092 -10.329999923706055,-7.138000011444092 C-10.329999923706055,-7.138000011444092 -10.329999923706055,7.138000011444092 -10.329999923706055,7.138000011444092 C-10.329999923706055,7.138000011444092 10.329999923706055,7.138000011444092 10.329999923706055,7.138000011444092 C10.329999923706055,7.138000011444092 10.329999923706055,-7.138000011444092 10.329999923706055,-7.138000011444092z"></path></g><g opacity="1" transform="matrix(1,0,0,1,0,339)"><path stroke-linecap="round" stroke-linejoin="round" fill-opacity="0" stroke="rgb(0,0,0)" stroke-opacity="1" stroke-width="16" d=" M66.89700317382812,254.3280029296875 C66.89700317382812,254.3280029296875 81.66899871826172,254.04299926757812 81.66899871826172,254.04299926757812"></path></g><g opacity="1" transform="matrix(1,0,0,1,0,339)"><path stroke-linecap="round" stroke-linejoin="round" fill-opacity="0" stroke="rgb(0,0,0)" stroke-opacity="1" stroke-width="16" d=" M66.89700317382812,308.760986328125 C66.89700317382812,308.760986328125 83.33000183105469,308.90899658203125 83.33000183105469,308.90899658203125"></path></g><g opacity="1" transform="matrix(1,0,0,1,255.4720001220703,541.1170043945312)"><path stroke-linecap="round" stroke-linejoin="round" fill-opacity="0" stroke="rgb(51,204,204)" stroke-opacity="1" stroke-width="16" d=" M13.140999794006348,11.845000267028809 C13.140999794006348,11.845000267028809 -13.140999794006348,11.845000267028809 -13.140999794006348,11.845000267028809 C-13.140999794006348,11.845000267028809 -13.140999794006348,-11.845000267028809 -13.140999794006348,-11.845000267028809 C-13.140999794006348,-11.845000267028809 13.140999794006348,-11.845000267028809 13.140999794006348,-11.845000267028809 C13.140999794006348,-11.845000267028809 13.140999794006348,11.845000267028809 13.140999794006348,11.845000267028809z"></path></g></g></g><g transform="matrix(1,0,0,1,57.38600158691406,57.38600158691406)" opacity="1" style="display: block;"><g opacity="1" transform="matrix(1,0,0,1,339.4159851074219,45.81100082397461)"><path stroke-linecap="round" stroke-linejoin="round" fill-opacity="0" stroke="rgb(51,204,204)" stroke-opacity="1" stroke-width="16" d=" M-34.49700164794922,34.49700164794922 C-34.49700164794922,34.49700164794922 34.49700164794922,34.49700164794922 34.49700164794922,34.49700164794922 C34.49700164794922,34.49700164794922 34.49700164794922,-34.49700164794922 34.49700164794922,-34.49700164794922 C34.49700164794922,-34.49700164794922 -34.49700164794922,-34.49700164794922 -34.49700164794922,-34.49700164794922 C-34.49700164794922,-34.49700164794922 -34.49700164794922,34.49700164794922 -34.49700164794922,34.49700164794922z"></path></g><g opacity="1" transform="matrix(1,0,0,1,192.61399841308594,227.11099243164062)"><path stroke-linecap="round" stroke-linejoin="round" fill-opacity="0" stroke="rgb(0,0,0)" stroke-opacity="1" stroke-width="16" d=" M181.3000030517578,146.802001953125 C181.3000030517578,146.802001953125 -181.3000030517578,146.802001953125 -181.3000030517578,146.802001953125 C-181.3000030517578,146.802001953125 -181.3000030517578,-146.802001953125 -181.3000030517578,-146.802001953125 C-181.3000030517578,-146.802001953125 181.3000030517578,-146.802001953125 181.3000030517578,-146.802001953125 C181.3000030517578,-146.802001953125 181.3000030517578,146.802001953125 181.3000030517578,146.802001953125z"></path></g><g opacity="1" transform="matrix(1,0,0,1,192.61399841308594,45.81100082397461)"><path stroke-linecap="round" stroke-linejoin="round" fill-opacity="0" stroke="rgb(0,0,0)" stroke-opacity="1" stroke-width="16" d=" M181.3000030517578,-34.49700164794922 C181.3000030517578,-34.49700164794922 -181.3000030517578,-34.49700164794922 -181.3000030517578,-34.49700164794922 C-181.3000030517578,-34.49700164794922 -181.3000030517578,34.49700164794922 -181.3000030517578,34.49700164794922 C-181.3000030517578,34.49700164794922 181.3000030517578,34.49700164794922 181.3000030517578,34.49700164794922 C181.3000030517578,34.49700164794922 181.3000030517578,-34.49700164794922 181.3000030517578,-34.49700164794922z"></path></g></g></g></svg>