<svg xmlns="http://www.w3.org/2000/svg" xmlns:xlink="http://www.w3.org/1999/xlink" viewBox="0 0 500 500" width="500" height="500" preserveAspectRatio="xMidYMid meet" style="width: 100%; height: 100%; transform: translate3d(0px, 0px, 0px); content-visibility: visible;"><defs><clipPath id="__lottie_element_38"><rect width="500" height="500" x="0" y="0"></rect></clipPath></defs><g clip-path="url(#__lottie_element_38)"><g transform="matrix(0.9851734638214111,-0.17158761620521545,0.17158761620521545,0.9851734638214111,52.722320556640625,76.71990966796875)" opacity="1" style="display: block;"><g opacity="1" transform="matrix(1,0,0,1,169.5,211.5)"><path stroke-linecap="round" stroke-linejoin="round" fill-opacity="0" stroke="rgb(0,0,0)" stroke-opacity="1" stroke-width="16" d=" M129.5,171.5 C129.5,171.5 -129.5,171.5 -129.5,171.5 C-129.5,171.5 -129.5,-171.5 -129.5,-171.5 C-129.5,-171.5 80.5,-171.5 80.5,-171.5 C80.5,-171.5 129.5,-122.5 129.5,-122.5 C129.5,-122.5 129.5,171.5 129.5,171.5z"></path></g><g opacity="1" transform="matrix(1,0,0,1,274.5,64.5)"><path stroke-linecap="round" stroke-linejoin="round" fill-opacity="0" stroke="rgb(0,0,0)" stroke-opacity="1" stroke-width="16" d=" M-24.5,-24.5 C-24.5,-24.5 -24.5,24.5 -24.5,24.5 C-24.5,24.5 24.5,24.5 24.5,24.5"></path></g><g opacity="1" transform="matrix(1,0,0,1,131,131)"><path stroke-linecap="round" stroke-linejoin="round" fill-opacity="0" stroke="rgb(0,204,203)" stroke-opacity="1" stroke-width="16" d=" M-63,0 C-63,-34.79399871826172 -34.79399871826172,-63 0,-63 C34.79399871826172,-63 63,-34.79399871826172 63,0 C63,34.79399871826172 34.79399871826172,63 0,63 C-34.79399871826172,63 -63,34.79399871826172 -63,0z"></path></g><g opacity="1" transform="matrix(1,0,0,1,131,130.88499450683594)"><path stroke-linecap="round" stroke-linejoin="round" fill-opacity="0" stroke="rgb(0,0,0)" stroke-opacity="1" stroke-width="16" d=" M-19.25,24.614999771118164 C-19.25,24.614999771118164 -0.9390000104904175,-23.69499969482422 -0.9390000104904175,-23.69499969482422 C-0.5649999976158142,-24.61400032043457 0.7300000190734863,-24.614999771118164 1.1059999465942383,-23.695999145507812 C1.1059999465942383,-23.695999145507812 19.25,24.614999771118164 19.25,24.614999771118164"></path></g><g opacity="1" transform="matrix(1,0,0,1,0,0)"><path stroke-linecap="round" stroke-linejoin="round" fill-opacity="0" stroke="rgb(0,0,0)" stroke-opacity="1" stroke-width="16" d=" M116.2959976196289,143.46800231933594 C116.2959976196289,143.46800231933594 145.74000549316406,143.46800231933594 145.74000549316406,143.46800231933594"></path></g><g opacity="1" transform="matrix(1,0,0,1,0,0)"><path stroke-linecap="round" stroke-linejoin="round" fill-opacity="0" stroke="rgb(0,0,0)" stroke-opacity="1" stroke-width="16" d=" M103,236 C103,236 75,236 75,236"></path></g><g opacity="1" transform="matrix(1,0,0,1,0,0)"><path stroke-linecap="round" stroke-linejoin="round" fill-opacity="0" stroke="rgb(0,0,0)" stroke-opacity="1" stroke-width="16" d=" M138,236 C138,236 264,236 264,236"></path></g><g opacity="1" transform="matrix(1,0,0,1,0,0)"><path stroke-linecap="round" stroke-linejoin="round" fill-opacity="0" stroke="rgb(0,204,203)" stroke-opacity="1" stroke-width="16" d=" M103,271.0010070800781 C103,271.0010070800781 75,271.0010070800781 75,271.0010070800781"></path></g><g opacity="1" transform="matrix(1,0,0,1,0,0)"><path stroke-linecap="round" stroke-linejoin="round" fill-opacity="0" stroke="rgb(0,204,203)" stroke-opacity="1" stroke-width="16" d=" M138,271.0010070800781 C138,271.0010070800781 264,271.0010070800781 264,271.0010070800781"></path></g><g opacity="1" transform="matrix(1,0,0,1,0,0)"><path stroke-linecap="round" stroke-linejoin="round" fill-opacity="0" stroke="rgb(0,0,0)" stroke-opacity="1" stroke-width="16" d=" M103,306 C103,306 75,306 75,306"></path></g><g opacity="1" transform="matrix(1,0,0,1,0,0)"><path stroke-linecap="round" stroke-linejoin="round" fill-opacity="0" stroke="rgb(0,0,0)" stroke-opacity="1" stroke-width="16" d=" M138,306 C138,306 264,306 264,306"></path></g><g opacity="1" transform="matrix(1,0,0,1,0,0)"><path stroke-linecap="round" stroke-linejoin="round" fill-opacity="0" stroke="rgb(0,204,203)" stroke-opacity="1" stroke-width="16" d=" M103,341 C103,341 75,341 75,341"></path></g><g opacity="1" transform="matrix(1,0,0,1,0,0)"><path stroke-linecap="round" stroke-linejoin="round" fill-opacity="0" stroke="rgb(0,204,203)" stroke-opacity="1" stroke-width="16" d=" M138,341 C138,341 264,341 264,341"></path></g><g opacity="1" transform="matrix(1,0,0,1,0,0)"><path stroke-linecap="round" stroke-linejoin="round" fill-opacity="0" stroke="rgb(0,204,203)" stroke-opacity="1" stroke-width="16" d=" M222,145 C222,145 264,145 264,145"></path></g><g opacity="1" transform="matrix(1,0,0,1,0,0)"><path stroke-linecap="round" stroke-linejoin="round" fill-opacity="0" stroke="rgb(0,0,0)" stroke-opacity="1" stroke-width="16" d=" M222,173 C222,173 264,173 264,173"></path></g><g opacity="1" transform="matrix(1,0,0,1,0,0)"><path stroke-linecap="round" stroke-linejoin="round" fill-opacity="0" stroke="rgb(51,204,204)" stroke-opacity="1" stroke-width="16" d=" M222,201.00100708007812 C222,201.00100708007812 264,201.00100708007812 264,201.00100708007812"></path></g></g><g transform="matrix(0.9862315654754639,-0.16539767384529114,0.16539767384529114,0.9862315654754639,80.05693054199219,93.93228149414062)" opacity="1" style="display: block;"><g opacity="1" transform="matrix(1,0,0,1,108,108.0009994506836)"><path stroke-linecap="round" stroke-linejoin="round" fill-opacity="0" stroke="rgb(0,0,0)" stroke-opacity="1" stroke-width="18" d="M0 0"></path></g></g></g></svg>